{
    "asset" : {
        "generator" : "Khronos glTF Blender I/O v1.6.16",
        "version" : "2.0"
    },
    "extensionsUsed" : [
        "KHR_materials_clearcoat"
    ],
    "scene" : 0,
    "scenes" : [
        {
            "name" : "Scene",
            "nodes" : [
                0,
                1,
                4,
                5,
                6,
                7,
                9
            ]
        }
    ],
    "nodes" : [
        {
            "name" : "Area",
            "scale" : [
                2.819999933242798,
                1,
                1
            ],
            "translation" : [
                10.361871719360352,
                29.988628387451172,
                21.0345458984375
            ]
        },
        {
            "mesh" : 0,
            "name" : "Cube.001",
            "scale" : [
                5.550000190734863,
                4.610000133514404,
                23.240001678466797
            ],
            "translation" : [
                10.068985939025879,
                3.747419834136963,
                21.0345458984375
            ]
        },
        {
            "mesh" : 1,
            "name" : "DoorMesh.001",
            "rotation" : [
                0,
                -0.9977504014968872,
                0,
                0.06703929603099823
            ],
            "scale" : [
                -2.633070230484009,
                11.041967391967773,
                8.702672958374023
            ],
            "translation" : [
                -1.0399068593978882,
                -1.9827470779418945,
                -89.72926330566406
            ]
        },
        {
            "mesh" : 2,
            "name" : "DoorMesh.002",
            "rotation" : [
                0,
                -0.9977504014968872,
                0,
                0.06703929603099823
            ],
            "scale" : [
                -2.633070230484009,
                11.041967391967773,
                8.702672958374023
            ],
            "translation" : [
                -1.0151474475860596,
                -2.0900039672851562,
                -0.5555322766304016
            ]
        },
        {
            "children" : [
                2,
                3
            ],
            "name" : "DOORFRAMECOPPY",
            "rotation" : [
                0,
                0.7072834372520447,
                0,
                0.7069301009178162
            ],
            "scale" : [
                0.6448514461517334,
                0.11592137068510056,
                0.11592137068510056
            ],
            "translation" : [
                15.530335426330566,
                1.3370846509933472,
                3.969916820526123
            ]
        },
        {
            "mesh" : 3,
            "name" : "Cube",
            "scale" : [
                5.550000190734863,
                4.600000381469727,
                7.679999351501465
            ],
            "translation" : [
                28.14704132080078,
                -1.2258522510528564,
                8.184188842773438
            ]
        },
        {
            "name" : "Area.001",
            "scale" : [
                2.819999933242798,
                1,
                1
            ],
            "translation" : [
                10.361871719360352,
                29.988628387451172,
                21.0345458984375
            ]
        },
        {
            "name" : "Area.002",
            "translation" : [
                10.361871719360352,
                7.988628387451172,
                21.0345458984375
            ]
        },
        {
            "name" : "Camera_Orientation"
        },
        {
            "children" : [
                8
            ],
            "name" : "Camera",
            "rotation" : [
                0.18478751182556152,
                -0.7410831451416016,
                0.6044126152992249,
                0.22657175362110138
            ],
            "translation" : [
                10.361869812011719,
                0.9886283874511719,
                0.0345458984375
            ]
        }
    ],
    "materials" : [
        {
            "doubleSided" : true,
            "name" : "Material.001",
            "pbrMetallicRoughness" : {
                "baseColorFactor" : [
                    0.800000011920929,
                    0.800000011920929,
                    0.800000011920929,
                    1
                ],
                "metallicFactor" : 0,
                "roughnessFactor" : 0.5
            }
        },
        {
            "doubleSided" : true,
            "extensions" : {
                "KHR_materials_clearcoat" : {
                    "clearcoatFactor" : 0.20000000298023224,
                    "clearcoatRoughnessFactor" : 0.029999999329447746
                }
            },
            "name" : "Glass.001",
            "pbrMetallicRoughness" : {
                "baseColorFactor" : [
                    0.800000011920929,
                    0.800000011920929,
                    0.800000011920929,
                    1
                ],
                "metallicFactor" : 0,
                "roughnessFactor" : 0.20000000298023224
            }
        },
        {
            "doubleSided" : true,
            "name" : "Door.001",
            "pbrMetallicRoughness" : {
                "metallicFactor" : 0,
                "roughnessFactor" : 0.5276595950126648
            }
        },
        {
            "doubleSided" : true,
            "name" : "Handle.001",
            "pbrMetallicRoughness" : {
                "metallicFactor" : 0.11347517371177673,
                "roughnessFactor" : 0.09503547102212906
            }
        }
    ],
    "meshes" : [
        {
            "name" : "Cube.007",
            "primitives" : [
                {
                    "attributes" : {
                        "POSITION" : 0,
                        "NORMAL" : 1,
                        "TEXCOORD_0" : 2
                    },
                    "indices" : 3,
                    "material" : 0
                }
            ]
        },
        {
            "name" : "Cube.014",
            "primitives" : [
                {
                    "attributes" : {
                        "POSITION" : 4,
                        "NORMAL" : 5,
                        "TEXCOORD_0" : 6
                    },
                    "indices" : 7,
                    "material" : 1
                },
                {
                    "attributes" : {
                        "POSITION" : 8,
                        "NORMAL" : 9,
                        "TEXCOORD_0" : 10
                    },
                    "indices" : 11,
                    "material" : 2
                },
                {
                    "attributes" : {
                        "POSITION" : 12,
                        "NORMAL" : 13,
                        "TEXCOORD_0" : 14
                    },
                    "indices" : 15,
                    "material" : 3
                }
            ]
        },
        {
            "name" : "Cube.013",
            "primitives" : [
                {
                    "attributes" : {
                        "POSITION" : 16,
                        "NORMAL" : 17,
                        "TEXCOORD_0" : 18
                    },
                    "indices" : 7,
                    "material" : 1
                },
                {
                    "attributes" : {
                        "POSITION" : 19,
                        "NORMAL" : 20,
                        "TEXCOORD_0" : 21
                    },
                    "indices" : 11,
                    "material" : 2
                },
                {
                    "attributes" : {
                        "POSITION" : 22,
                        "NORMAL" : 23,
                        "TEXCOORD_0" : 24
                    },
                    "indices" : 15,
                    "material" : 3
                }
            ]
        },
        {
            "name" : "Cube.011",
            "primitives" : [
                {
                    "attributes" : {
                        "POSITION" : 25,
                        "NORMAL" : 26,
                        "TEXCOORD_0" : 27
                    },
                    "indices" : 28
                }
            ]
        }
    ],
    "accessors" : [
        {
            "bufferView" : 0,
            "componentType" : 5126,
            "count" : 517,
            "max" : [
                1.0000004768371582,
                1,
                0.9999997615814209
            ],
            "min" : [
                -0.8944559097290039,
                -0.9999998807907104,
                -1.000000238418579
            ],
            "type" : "VEC3"
        },
        {
            "bufferView" : 1,
            "componentType" : 5126,
            "count" : 517,
            "type" : "VEC3"
        },
        {
            "bufferView" : 2,
            "componentType" : 5126,
            "count" : 517,
            "type" : "VEC2"
        },
        {
            "bufferView" : 3,
            "componentType" : 5123,
            "count" : 630,
            "type" : "SCALAR"
        },
        {
            "bufferView" : 4,
            "componentType" : 5126,
            "count" : 336,
            "max" : [
                0.6847177743911743,
                0.11747348308563232,
                0.0032615172676742077
            ],
            "min" : [
                0.13528552651405334,
                -1.280585765838623,
                -0.00263018487021327
            ],
            "type" : "VEC3"
        },
        {
            "bufferView" : 5,
            "componentType" : 5126,
            "count" : 336,
            "type" : "VEC3"
        },
        {
            "bufferView" : 6,
            "componentType" : 5126,
            "count" : 336,
            "type" : "VEC2"
        },
        {
            "bufferView" : 7,
            "componentType" : 5123,
            "count" : 1512,
            "type" : "SCALAR"
        },
        {
            "bufferView" : 8,
            "componentType" : 5126,
            "count" : 1914,
            "max" : [
                0.8100016117095947,
                0.2684438228607178,
                0.020315665751695633
            ],
            "min" : [
                0.01000162959098816,
                -1.431556224822998,
                -0.019684333354234695
            ],
            "type" : "VEC3"
        },
        {
            "bufferView" : 9,
            "componentType" : 5126,
            "count" : 1914,
            "type" : "VEC3"
        },
        {
            "bufferView" : 10,
            "componentType" : 5126,
            "count" : 1914,
            "type" : "VEC2"
        },
        {
            "bufferView" : 11,
            "componentType" : 5123,
            "count" : 6486,
            "type" : "SCALAR"
        },
        {
            "bufferView" : 12,
            "componentType" : 5126,
            "count" : 576,
            "max" : [
                0.8192319273948669,
                1.5020370483398438e-05,
                0.058441389352083206
            ],
            "min" : [
                -0.0004929983988404274,
                -1.1631274223327637,
                -0.05781005322933197
            ],
            "type" : "VEC3"
        },
        {
            "bufferView" : 13,
            "componentType" : 5126,
            "count" : 576,
            "type" : "VEC3"
        },
        {
            "bufferView" : 14,
            "componentType" : 5126,
            "count" : 576,
            "type" : "VEC2"
        },
        {
            "bufferView" : 15,
            "componentType" : 5123,
            "count" : 2058,
            "type" : "SCALAR"
        },
        {
            "bufferView" : 16,
            "componentType" : 5126,
            "count" : 336,
            "max" : [
                0.6847177743911743,
                0.11747348308563232,
                0.0032615172676742077
            ],
            "min" : [
                0.13528552651405334,
                -1.280585765838623,
                -0.00263018487021327
            ],
            "type" : "VEC3"
        },
        {
            "bufferView" : 17,
            "componentType" : 5126,
            "count" : 336,
            "type" : "VEC3"
        },
        {
            "bufferView" : 18,
            "componentType" : 5126,
            "count" : 336,
            "type" : "VEC2"
        },
        {
            "bufferView" : 19,
            "componentType" : 5126,
            "count" : 1914,
            "max" : [
                0.8100016117095947,
                0.2684438228607178,
                0.020315665751695633
            ],
            "min" : [
                0.01000162959098816,
                -1.431556224822998,
                -0.019684333354234695
            ],
            "type" : "VEC3"
        },
        {
            "bufferView" : 20,
            "componentType" : 5126,
            "count" : 1914,
            "type" : "VEC3"
        },
        {
            "bufferView" : 21,
            "componentType" : 5126,
            "count" : 1914,
            "type" : "VEC2"
        },
        {
            "bufferView" : 22,
            "componentType" : 5126,
            "count" : 576,
            "max" : [
                0.8192319273948669,
                1.5020370483398438e-05,
                0.058441389352083206
            ],
            "min" : [
                -0.0004929983988404274,
                -1.1631274223327637,
                -0.05781005322933197
            ],
            "type" : "VEC3"
        },
        {
            "bufferView" : 23,
            "componentType" : 5126,
            "count" : 576,
            "type" : "VEC3"
        },
        {
            "bufferView" : 24,
            "componentType" : 5126,
            "count" : 576,
            "type" : "VEC2"
        },
        {
            "bufferView" : 25,
            "componentType" : 5126,
            "count" : 140,
            "max" : [
                -0.2612612247467041,
                2.084599256515503,
                1.1760563850402832
            ],
            "min" : [
                -6.147808074951172,
                0.08459877967834473,
                -0.8239436745643616
            ],
            "type" : "VEC3"
        },
        {
            "bufferView" : 26,
            "componentType" : 5126,
            "count" : 140,
            "type" : "VEC3"
        },
        {
            "bufferView" : 27,
            "componentType" : 5126,
            "count" : 140,
            "type" : "VEC2"
        },
        {
            "bufferView" : 28,
            "componentType" : 5123,
            "count" : 168,
            "type" : "SCALAR"
        }
    ],
    "bufferViews" : [
        {
            "buffer" : 0,
            "byteLength" : 6204,
            "byteOffset" : 0
        },
        {
            "buffer" : 0,
            "byteLength" : 6204,
            "byteOffset" : 6204
        },
        {
            "buffer" : 0,
            "byteLength" : 4136,
            "byteOffset" : 12408
        },
        {
            "buffer" : 0,
            "byteLength" : 1260,
            "byteOffset" : 16544
        },
        {
            "buffer" : 0,
            "byteLength" : 4032,
            "byteOffset" : 17804
        },
        {
            "buffer" : 0,
            "byteLength" : 4032,
            "byteOffset" : 21836
        },
        {
            "buffer" : 0,
            "byteLength" : 2688,
            "byteOffset" : 25868
        },
        {
            "buffer" : 0,
            "byteLength" : 3024,
            "byteOffset" : 28556
        },
        {
            "buffer" : 0,
            "byteLength" : 22968,
            "byteOffset" : 31580
        },
        {
            "buffer" : 0,
            "byteLength" : 22968,
            "byteOffset" : 54548
        },
        {
            "buffer" : 0,
            "byteLength" : 15312,
            "byteOffset" : 77516
        },
        {
            "buffer" : 0,
            "byteLength" : 12972,
            "byteOffset" : 92828
        },
        {
            "buffer" : 0,
            "byteLength" : 6912,
            "byteOffset" : 105800
        },
        {
            "buffer" : 0,
            "byteLength" : 6912,
            "byteOffset" : 112712
        },
        {
            "buffer" : 0,
            "byteLength" : 4608,
            "byteOffset" : 119624
        },
        {
            "buffer" : 0,
            "byteLength" : 4116,
            "byteOffset" : 124232
        },
        {
            "buffer" : 0,
            "byteLength" : 4032,
            "byteOffset" : 128348
        },
        {
            "buffer" : 0,
            "byteLength" : 4032,
            "byteOffset" : 132380
        },
        {
            "buffer" : 0,
            "byteLength" : 2688,
            "byteOffset" : 136412
        },
        {
            "buffer" : 0,
            "byteLength" : 22968,
            "byteOffset" : 139100
        },
        {
            "buffer" : 0,
            "byteLength" : 22968,
            "byteOffset" : 162068
        },
        {
            "buffer" : 0,
            "byteLength" : 15312,
            "byteOffset" : 185036
        },
        {
            "buffer" : 0,
            "byteLength" : 6912,
            "byteOffset" : 200348
        },
        {
            "buffer" : 0,
            "byteLength" : 6912,
            "byteOffset" : 207260
        },
        {
            "buffer" : 0,
            "byteLength" : 4608,
            "byteOffset" : 214172
        },
        {
            "buffer" : 0,
            "byteLength" : 1680,
            "byteOffset" : 218780
        },
        {
            "buffer" : 0,
            "byteLength" : 1680,
            "byteOffset" : 220460
        },
        {
            "buffer" : 0,
            "byteLength" : 1120,
            "byteOffset" : 222140
        },
        {
            "buffer" : 0,
            "byteLength" : 336,
            "byteOffset" : 223260
        }
    ],
    "buffers" : [
        {
            "byteLength" : 223596,
            "uri" : "data:application/octet-stream;base64,"
        }
    ]
}
